<svg width="174" height="189" viewBox="0 0 174 189" fill="none" xmlns="http://www.w3.org/2000/svg">
<g filter="url(#filter0_d_1_394)">
<g filter="url(#filter1_d_1_394)">
<g filter="url(#filter2_d_1_394)">
<rect x="45" y="30.045" width="78.955" height="78.955" rx="4" fill="#FFB300"/>
</g>
<path fill-rule="evenodd" clip-rule="evenodd" d="M103.095 80.6136L100.801 78.3199C100.594 78.1146 100.622 77.1652 100.622 76.8731V67.0037C100.622 60.3221 96.0502 54.4597 89.7496 52.3595V52.176C89.7496 49.5191 87.5014 47.265 84.8307 47.265C82.168 47.265 79.9099 49.5191 79.9099 52.176V52.3595C73.6092 54.4597 69.0397 60.3221 69.0397 67.0037V76.8731C69.0397 77.1652 69.0654 78.1146 68.8601 78.3199L66.5665 80.6136C65.8559 81.3242 65.09 82.6427 65.09 83.8626C65.09 85.4022 66.4855 86.6556 68.2008 86.6556H76.8385C77.6498 90.0882 80.7487 92.6522 84.4359 92.6522C88.1231 92.6522 91.913 90.175 92.7262 86.7425L101.461 86.6556C103.176 86.6556 104.569 85.4022 104.569 83.8626C104.569 82.6467 103.806 81.3261 103.095 80.6136ZM84.4359 89.1822C82.6891 89.1822 81.181 88.1439 80.4981 86.6556H88.3718C87.6889 88.1439 86.1808 89.1822 84.4359 89.1822ZM90.7524 82.7947C90.48 82.7276 91.0247 82.7276 90.7524 82.7947H78.9091C78.6367 82.7276 79.1815 82.7276 78.9091 82.7947H69.0397C69.0022 82.8302 69.1266 82.4552 69.0397 82.7947L71.3235 80.7695C72.1782 79.9168 72.9875 78.0811 72.9875 76.8731V67.0037C72.9875 61.3821 76.5187 56.6764 82.0555 55.3519C82.8371 55.1644 83.3878 54.4676 83.3878 53.6642V52.1759C83.3878 51.4535 84.1063 51.2127 84.8307 51.2127C85.5749 51.2127 86.2697 51.4397 86.2697 52.1759V53.6642C86.2697 54.4676 86.8224 55.1644 87.604 55.3519C93.1407 56.6764 96.674 61.3821 96.674 67.0037V76.8731C96.674 78.0811 97.4833 79.9168 98.338 80.7715L100.63 83.0612C100.667 83.0987 100.586 82.7493 100.622 82.7947H90.7524Z" fill="white"/>
</g>
<path fill-rule="evenodd" clip-rule="evenodd" d="M121.055 54.44C130.565 54.44 138.275 46.7303 138.275 37.22C138.275 27.7097 130.565 20 121.055 20C111.545 20 103.835 27.7097 103.835 37.22C103.835 46.7303 111.545 54.44 121.055 54.44Z" fill="#FF7878"/>
<path d="M119.064 41.1769H119.967C120.256 41.1769 120.494 41.1281 120.682 41.0305C120.869 40.9289 121.008 40.7883 121.098 40.6086C121.191 40.425 121.238 40.2121 121.238 39.9699C121.238 39.7512 121.195 39.5578 121.109 39.3898C121.027 39.218 120.9 39.0851 120.728 38.9914C120.557 38.8937 120.34 38.8449 120.078 38.8449C119.871 38.8449 119.68 38.8859 119.504 38.968C119.328 39.05 119.187 39.1652 119.082 39.3137C118.977 39.4621 118.924 39.6418 118.924 39.8527H117.23C117.23 39.384 117.355 38.9758 117.605 38.6281C117.859 38.2805 118.199 38.009 118.625 37.8137C119.051 37.6183 119.519 37.5207 120.031 37.5207C120.609 37.5207 121.115 37.6144 121.549 37.8019C121.982 37.9855 122.32 38.257 122.562 38.6164C122.805 38.9758 122.926 39.4211 122.926 39.9523C122.926 40.2219 122.863 40.4836 122.738 40.7375C122.613 40.9875 122.434 41.2141 122.199 41.4172C121.969 41.6164 121.687 41.7766 121.355 41.8976C121.023 42.0148 120.65 42.0734 120.236 42.0734H119.064V41.1769ZM119.064 42.4601V41.5871H120.236C120.701 41.5871 121.109 41.6398 121.461 41.7453C121.812 41.8508 122.107 42.0031 122.346 42.2023C122.584 42.3976 122.764 42.6301 122.885 42.8996C123.006 43.1652 123.066 43.4601 123.066 43.7844C123.066 44.1828 122.99 44.5383 122.838 44.8508C122.685 45.1594 122.471 45.4211 122.193 45.6359C121.92 45.8508 121.6 46.0148 121.232 46.1281C120.865 46.2375 120.465 46.2922 120.031 46.2922C119.672 46.2922 119.318 46.2433 118.971 46.1457C118.627 46.0441 118.314 45.8937 118.033 45.6945C117.756 45.4914 117.533 45.2375 117.365 44.9328C117.201 44.6242 117.119 44.259 117.119 43.8371H118.812C118.812 44.0558 118.867 44.2512 118.977 44.423C119.086 44.5949 119.236 44.7297 119.428 44.8273C119.623 44.925 119.84 44.9738 120.078 44.9738C120.348 44.9738 120.578 44.925 120.769 44.8273C120.965 44.7258 121.113 44.5851 121.215 44.4055C121.32 44.2219 121.373 44.009 121.373 43.7668C121.373 43.4543 121.316 43.2043 121.203 43.0168C121.09 42.8254 120.928 42.6848 120.717 42.5949C120.506 42.5051 120.256 42.4601 119.967 42.4601H119.064Z" fill="white"/>
</g>
<defs>
<filter id="filter0_d_1_394" x="10" y="0" width="163.275" height="159" filterUnits="userSpaceOnUse" color-interpolation-filters="sRGB">
<feFlood flood-opacity="0" result="BackgroundImageFix"/>
<feColorMatrix in="SourceAlpha" type="matrix" values="0 0 0 0 0 0 0 0 0 0 0 0 0 0 0 0 0 0 127 0" result="hardAlpha"/>
<feOffset dy="15"/>
<feGaussianBlur stdDeviation="17.5"/>
<feComposite in2="hardAlpha" operator="out"/>
<feColorMatrix type="matrix" values="0 0 0 0 0 0 0 0 0 0 0 0 0 0 0 0 0 0 0.25 0"/>
<feBlend mode="normal" in2="BackgroundImageFix" result="effect1_dropShadow_1_394"/>
<feBlend mode="normal" in="SourceGraphic" in2="effect1_dropShadow_1_394" result="shape"/>
</filter>
<filter id="filter1_d_1_394" x="0" y="20.045" width="168.955" height="168.955" filterUnits="userSpaceOnUse" color-interpolation-filters="sRGB">
<feFlood flood-opacity="0" result="BackgroundImageFix"/>
<feColorMatrix in="SourceAlpha" type="matrix" values="0 0 0 0 0 0 0 0 0 0 0 0 0 0 0 0 0 0 127 0" result="hardAlpha"/>
<feOffset dy="35"/>
<feGaussianBlur stdDeviation="22.5"/>
<feColorMatrix type="matrix" values="0 0 0 0 0.190902 0 0 0 0 0.257471 0 0 0 0 0.305677 0 0 0 0.15 0"/>
<feBlend mode="normal" in2="BackgroundImageFix" result="effect1_dropShadow_1_394"/>
<feBlend mode="normal" in="SourceGraphic" in2="effect1_dropShadow_1_394" result="shape"/>
</filter>
<filter id="filter2_d_1_394" x="29" y="15.045" width="112.955" height="112.955" filterUnits="userSpaceOnUse" color-interpolation-filters="sRGB">
<feFlood flood-opacity="0" result="BackgroundImageFix"/>
<feColorMatrix in="SourceAlpha" type="matrix" values="0 0 0 0 0 0 0 0 0 0 0 0 0 0 0 0 0 0 127 0" result="hardAlpha"/>
<feOffset dx="1" dy="2"/>
<feGaussianBlur stdDeviation="8.5"/>
<feColorMatrix type="matrix" values="0 0 0 0 0 0 0 0 0 0 0 0 0 0 0 0 0 0 0.07 0"/>
<feBlend mode="normal" in2="BackgroundImageFix" result="effect1_dropShadow_1_394"/>
<feBlend mode="normal" in="SourceGraphic" in2="effect1_dropShadow_1_394" result="shape"/>
</filter>
</defs>
</svg>
